<svg xmlns="http://www.w3.org/2000/svg" xmlns:xlink="http://www.w3.org/1999/xlink" width="500" zoomAndPan="magnify" viewBox="0 0 375 374.999991" height="500" preserveAspectRatio="xMidYMid meet" version="1.0"><defs><clipPath id="4ac94541e6"><path d="M 186 54.257812 L 193.664062 54.257812 L 193.664062 170 L 186 170 Z M 186 54.257812 " clip-rule="nonzero"/></clipPath><clipPath id="436907f516"><path d="M 189.710938 169.777344 C 187.707031 169.777344 186.066406 168.140625 186.066406 166.136719 L 186.066406 58.441406 C 186.066406 56.4375 187.707031 54.800781 189.710938 54.800781 C 191.714844 54.800781 193.351562 56.4375 193.351562 58.441406 L 193.351562 166.136719 C 193.351562 168.140625 191.714844 169.777344 189.710938 169.777344 " clip-rule="nonzero"/></clipPath><clipPath id="86cfbb2e24"><path d="M 67 82 L 193.664062 82 L 193.664062 130.714844 L 67 130.714844 Z M 67 82 " clip-rule="nonzero"/></clipPath><clipPath id="eb84cc388b"><path d="M 189.710938 130.449219 L 89.96875 130.449219 C 88.566406 130.449219 87.261719 129.613281 86.660156 128.34375 L 67.882812 87.410156 C 67.046875 85.609375 67.847656 83.4375 69.6875 82.601562 C 71.523438 81.765625 73.664062 82.566406 74.496094 84.40625 L 92.308594 123.164062 L 189.710938 123.164062 C 191.714844 123.164062 193.351562 124.800781 193.351562 126.808594 C 193.351562 128.8125 191.714844 130.449219 189.710938 130.449219 " clip-rule="nonzero"/></clipPath><clipPath id="c124fb52fb"><path d="M 186 116 L 308 116 L 308 160 L 186 160 Z M 186 116 " clip-rule="nonzero"/></clipPath><clipPath id="c9aa9a67ef"><path d="M 283.035156 159.488281 L 189.710938 159.488281 C 187.707031 159.488281 186.066406 157.847656 186.066406 155.84375 C 186.066406 153.839844 187.707031 152.203125 189.710938 152.203125 L 280.929688 152.203125 L 300.644531 117.953125 C 301.648438 116.214844 303.855469 115.613281 305.589844 116.617188 C 307.328125 117.617188 307.929688 119.824219 306.929688 121.5625 L 286.175781 157.648438 C 285.542969 158.785156 284.339844 159.453125 283.035156 159.453125 " clip-rule="nonzero"/></clipPath><clipPath id="4704e99467"><path d="M 150 308.289062 L 229.425781 308.289062 L 229.425781 342.816406 L 150 342.816406 Z M 150 308.289062 " clip-rule="nonzero"/></clipPath><clipPath id="3c15974328"><path d="M 212.53125 308.613281 L 166.886719 308.613281 C 157.597656 308.613281 150.046875 316.167969 150.046875 325.457031 C 150.046875 334.746094 157.566406 342.296875 166.886719 342.296875 L 212.53125 342.296875 C 221.820312 342.296875 229.375 334.777344 229.375 325.457031 C 229.375 316.132812 221.820312 308.613281 212.53125 308.613281 " clip-rule="nonzero"/></clipPath><clipPath id="6214ce9e83"><path d="M 150 320 L 229.425781 320 L 229.425781 342.816406 L 150 342.816406 Z M 150 320 " clip-rule="nonzero"/></clipPath><clipPath id="49d9e27ee1"><path d="M 212.53125 331.9375 L 166.886719 331.9375 C 159.402344 331.9375 153.15625 327.027344 150.949219 320.277344 C 150.414062 321.914062 150.046875 323.617188 150.046875 325.457031 C 150.046875 334.746094 157.566406 342.296875 166.886719 342.296875 L 212.53125 342.296875 C 221.820312 342.296875 229.375 334.777344 229.375 325.457031 C 229.375 323.652344 229.003906 321.914062 228.472656 320.277344 C 226.300781 327.027344 220.015625 331.9375 212.53125 331.9375 " clip-rule="nonzero"/></clipPath><clipPath id="3e418e0d15"><path d="M 150 270.0625 L 229.425781 270.0625 L 229.425781 304 L 150 304 Z M 150 270.0625 " clip-rule="nonzero"/></clipPath><clipPath id="65f163672a"><path d="M 212.53125 270.15625 L 166.886719 270.15625 C 157.597656 270.15625 150.046875 277.671875 150.046875 286.996094 C 150.046875 296.316406 157.566406 303.835938 166.886719 303.835938 L 212.53125 303.835938 C 221.820312 303.835938 229.375 296.316406 229.375 286.996094 C 229.375 277.671875 221.820312 270.15625 212.53125 270.15625 " clip-rule="nonzero"/></clipPath><clipPath id="16e8314fc8"><path d="M 150 281.160156 L 229.425781 281.160156 L 229.425781 304 L 150 304 Z M 150 281.160156 " clip-rule="nonzero"/></clipPath><clipPath id="188a4ac23b"><path d="M 212.53125 293.476562 L 166.886719 293.476562 C 159.402344 293.476562 153.15625 288.566406 150.949219 281.816406 C 150.414062 283.453125 150.046875 285.15625 150.046875 286.960938 C 150.046875 296.25 157.566406 303.804688 166.886719 303.804688 L 212.53125 303.804688 C 221.820312 303.804688 229.375 296.25 229.375 286.960938 C 229.375 285.15625 229.003906 283.421875 228.472656 281.816406 C 226.300781 288.566406 220.015625 293.476562 212.53125 293.476562 " clip-rule="nonzero"/></clipPath><clipPath id="668ac5eeed"><path d="M 120 184 L 259 184 L 259 265 L 120 265 Z M 120 184 " clip-rule="nonzero"/></clipPath><clipPath id="7a266a17a8"><path d="M 189.710938 184.144531 L 127.425781 184.144531 C 123.484375 184.144531 120.308594 187.453125 120.507812 191.398438 C 122.882812 241.6875 150.148438 243.355469 155.027344 249.9375 C 157.566406 253.382812 159.203125 257.023438 160.171875 259.796875 C 161.140625 262.570312 163.746094 264.472656 166.6875 264.472656 L 212.734375 264.472656 C 215.671875 264.472656 218.246094 262.570312 219.25 259.796875 C 220.25 257.023438 221.855469 253.382812 224.394531 249.9375 C 229.273438 243.355469 256.539062 241.652344 258.910156 191.398438 C 259.113281 187.453125 255.9375 184.144531 251.996094 184.144531 Z M 189.710938 184.144531 " clip-rule="nonzero"/></clipPath><clipPath id="3781c9a4b7"><path d="M 172.703125 347 L 207 347 L 207 358.847656 L 172.703125 358.847656 Z M 172.703125 347 " clip-rule="nonzero"/></clipPath><clipPath id="6654ee3468"><path d="M 172.96875 347.609375 C 175.945312 353.890625 182.292969 358.269531 189.710938 358.269531 C 197.128906 358.269531 203.476562 353.890625 206.449219 347.609375 Z M 172.96875 347.609375 " clip-rule="nonzero"/></clipPath><clipPath id="18076f8fb7"><path d="M 147 16.03125 L 231.894531 16.03125 L 231.894531 101 L 147 101 Z M 147 16.03125 " clip-rule="nonzero"/></clipPath><clipPath id="1fddfed332"><path d="M 231.445312 58.441406 C 231.445312 81.496094 212.765625 100.175781 189.710938 100.175781 C 166.65625 100.175781 147.976562 81.496094 147.976562 58.441406 C 147.976562 35.386719 166.65625 16.707031 189.710938 16.707031 C 212.765625 16.707031 231.445312 35.386719 231.445312 58.441406 " clip-rule="nonzero"/></clipPath><clipPath id="037c31510d"><path d="M 147 50.558594 L 231.894531 50.558594 L 231.894531 101 L 147 101 Z M 147 50.558594 " clip-rule="nonzero"/></clipPath><clipPath id="4fb3ccacb0"><path d="M 189.710938 84.503906 C 169.328125 84.503906 152.421875 69.902344 148.746094 50.621094 C 148.242188 53.164062 147.976562 55.769531 147.976562 58.476562 C 147.976562 81.53125 166.65625 100.210938 189.710938 100.210938 C 212.765625 100.210938 231.445312 81.53125 231.445312 58.476562 C 231.445312 55.800781 231.175781 53.164062 230.675781 50.621094 C 227.035156 69.902344 210.09375 84.503906 189.710938 84.503906 " clip-rule="nonzero"/></clipPath><clipPath id="3fadd13067"><path d="M 278.753906 94.953125 L 329 94.953125 L 329 145 L 278.753906 145 Z M 278.753906 94.953125 " clip-rule="nonzero"/></clipPath><clipPath id="3185715d8c"><path d="M 328.648438 119.789062 C 328.648438 133.523438 317.519531 144.617188 303.820312 144.617188 C 290.121094 144.617188 278.992188 133.492188 278.992188 119.789062 C 278.992188 106.089844 290.121094 94.964844 303.820312 94.964844 C 317.519531 94.964844 328.648438 106.089844 328.648438 119.789062 " clip-rule="nonzero"/></clipPath><clipPath id="7d63d8c7bf"><path d="M 278.753906 115 L 329 115 L 329 145 L 278.753906 145 Z M 278.753906 115 " clip-rule="nonzero"/></clipPath><clipPath id="5455a9f350"><path d="M 303.785156 135.261719 C 291.65625 135.261719 281.601562 126.574219 279.394531 115.113281 C 279.09375 116.617188 278.925781 118.1875 278.925781 119.789062 C 278.925781 133.523438 290.054688 144.617188 303.753906 144.617188 C 317.453125 144.617188 328.582031 133.492188 328.582031 119.789062 C 328.582031 118.1875 328.414062 116.648438 328.113281 115.113281 C 325.941406 126.574219 315.847656 135.261719 303.71875 135.261719 " clip-rule="nonzero"/></clipPath><clipPath id="814208a25c"><path d="M 46 61 L 96.246094 61 L 96.246094 110.984375 L 46 110.984375 Z M 46 61 " clip-rule="nonzero"/></clipPath><clipPath id="8b09bbb186"><path d="M 96.015625 85.910156 C 96.015625 99.640625 84.890625 110.734375 71.191406 110.734375 C 57.488281 110.734375 46.363281 99.609375 46.363281 85.910156 C 46.363281 72.207031 57.488281 61.082031 71.191406 61.082031 C 84.890625 61.082031 96.015625 72.207031 96.015625 85.910156 " clip-rule="nonzero"/></clipPath><clipPath id="765e5aa933"><path d="M 46 81 L 96 81 L 96 110.984375 L 46 110.984375 Z M 46 81 " clip-rule="nonzero"/></clipPath><clipPath id="2472965648"><path d="M 71.191406 101.414062 C 59.058594 101.414062 49.003906 92.726562 46.796875 81.261719 C 46.496094 82.765625 46.328125 84.335938 46.328125 85.941406 C 46.328125 99.675781 57.457031 110.769531 71.15625 110.769531 C 84.855469 110.769531 95.984375 99.640625 95.984375 85.941406 C 95.984375 84.335938 95.816406 82.800781 95.515625 81.261719 C 93.34375 92.757812 83.253906 101.414062 71.121094 101.414062 " clip-rule="nonzero"/></clipPath></defs><g clip-path="url(#4ac94541e6)"><g clip-path="url(#436907f516)"><path fill="#ffffff" d="M 29.65625 0 L 345.34375 0 L 345.34375 374.878906 L 29.65625 374.878906 Z M 29.65625 0 " fill-opacity="1" fill-rule="nonzero"/></g></g><g clip-path="url(#86cfbb2e24)"><g clip-path="url(#eb84cc388b)"><path fill="#ffffff" d="M 29.65625 0 L 345.34375 0 L 345.34375 374.878906 L 29.65625 374.878906 Z M 29.65625 0 " fill-opacity="1" fill-rule="nonzero"/></g></g><g clip-path="url(#c124fb52fb)"><g clip-path="url(#c9aa9a67ef)"><path fill="#ffffff" d="M 29.65625 0 L 345.34375 0 L 345.34375 374.878906 L 29.65625 374.878906 Z M 29.65625 0 " fill-opacity="1" fill-rule="nonzero"/></g></g><g clip-path="url(#4704e99467)"><g clip-path="url(#3c15974328)"><path fill="#d2de4e" d="M 29.65625 0 L 345.34375 0 L 345.34375 374.878906 L 29.65625 374.878906 Z M 29.65625 0 " fill-opacity="1" fill-rule="nonzero"/></g></g><g clip-path="url(#6214ce9e83)"><g clip-path="url(#49d9e27ee1)"><path fill="#a4ce4a" d="M 29.65625 0 L 345.34375 0 L 345.34375 374.878906 L 29.65625 374.878906 Z M 29.65625 0 " fill-opacity="1" fill-rule="nonzero"/></g></g><g clip-path="url(#3e418e0d15)"><g clip-path="url(#65f163672a)"><path fill="#f4821f" d="M 29.65625 0 L 345.34375 0 L 345.34375 374.878906 L 29.65625 374.878906 Z M 29.65625 0 " fill-opacity="1" fill-rule="nonzero"/></g></g><g clip-path="url(#16e8314fc8)"><g clip-path="url(#188a4ac23b)"><path fill="#f16722" d="M 29.65625 0 L 345.34375 0 L 345.34375 374.878906 L 29.65625 374.878906 Z M 29.65625 0 " fill-opacity="1" fill-rule="nonzero"/></g></g><g clip-path="url(#668ac5eeed)"><g clip-path="url(#7a266a17a8)"><path fill="#ffffff" d="M 29.65625 0 L 345.34375 0 L 345.34375 374.878906 L 29.65625 374.878906 Z M 29.65625 0 " fill-opacity="1" fill-rule="nonzero"/></g></g><g clip-path="url(#3781c9a4b7)"><g clip-path="url(#6654ee3468)"><path fill="#ffffff" d="M 29.65625 0 L 345.34375 0 L 345.34375 374.878906 L 29.65625 374.878906 Z M 29.65625 0 " fill-opacity="1" fill-rule="nonzero"/></g></g><g clip-path="url(#18076f8fb7)"><g clip-path="url(#1fddfed332)"><path fill="#d2de4e" d="M 29.65625 0 L 345.34375 0 L 345.34375 374.878906 L 29.65625 374.878906 Z M 29.65625 0 " fill-opacity="1" fill-rule="nonzero"/></g></g><g clip-path="url(#037c31510d)"><g clip-path="url(#4fb3ccacb0)"><path fill="#a4ce4a" d="M 29.65625 0 L 345.34375 0 L 345.34375 374.878906 L 29.65625 374.878906 Z M 29.65625 0 " fill-opacity="1" fill-rule="nonzero"/></g></g><g clip-path="url(#3fadd13067)"><g clip-path="url(#3185715d8c)"><path fill="#f4821f" d="M 29.65625 0 L 345.34375 0 L 345.34375 374.878906 L 29.65625 374.878906 Z M 29.65625 0 " fill-opacity="1" fill-rule="nonzero"/></g></g><g clip-path="url(#7d63d8c7bf)"><g clip-path="url(#5455a9f350)"><path fill="#f16722" d="M 29.65625 0 L 345.34375 0 L 345.34375 374.878906 L 29.65625 374.878906 Z M 29.65625 0 " fill-opacity="1" fill-rule="nonzero"/></g></g><g clip-path="url(#814208a25c)"><g clip-path="url(#8b09bbb186)"><path fill="#f4821f" d="M 29.65625 0 L 345.34375 0 L 345.34375 374.878906 L 29.65625 374.878906 Z M 29.65625 0 " fill-opacity="1" fill-rule="nonzero"/></g></g><g clip-path="url(#765e5aa933)"><g clip-path="url(#2472965648)"><path fill="#f16722" d="M 29.65625 0 L 345.34375 0 L 345.34375 374.878906 L 29.65625 374.878906 Z M 29.65625 0 " fill-opacity="1" fill-rule="nonzero"/></g></g></svg>