<svg xmlns="http://www.w3.org/2000/svg" xmlns:xlink="http://www.w3.org/1999/xlink" width="500" zoomAndPan="magnify" viewBox="0 0 375 374.999991" height="500" preserveAspectRatio="xMidYMid meet" version="1.0"><defs><clipPath id="e827fd7fb8"><path d="M 298 213 L 353 213 L 353 292 L 298 292 Z M 298 213 " clip-rule="nonzero"/></clipPath><clipPath id="ffaac47a2d"><path d="M 341.089844 213.246094 L 309.351562 213.246094 C 303.175781 213.246094 298.207031 218.246094 298.207031 224.390625 L 298.207031 280.488281 C 298.207031 286.660156 303.207031 291.632812 309.351562 291.632812 L 341.089844 291.632812 C 347.261719 291.632812 352.234375 286.632812 352.234375 280.488281 L 352.234375 224.390625 C 352.234375 218.214844 347.234375 213.246094 341.089844 213.246094 " clip-rule="nonzero"/></clipPath><clipPath id="7c70d500cc"><path d="M 298 213 L 350.792969 213 L 350.792969 292 L 298 292 Z M 298 213 " clip-rule="nonzero"/></clipPath><clipPath id="2201c71c1b"><path d="M 341.242188 291.664062 C 345.195312 291.664062 348.621094 289.5625 350.566406 286.445312 C 341.550781 262.859375 335.222656 238.253906 331.734375 213.246094 L 309.226562 213.246094 C 303.144531 213.246094 298.207031 218.183594 298.207031 224.265625 L 298.207031 280.640625 C 298.207031 286.722656 303.144531 291.664062 309.226562 291.664062 Z M 341.242188 291.664062 " clip-rule="nonzero"/></clipPath><clipPath id="9d707710a6"><path d="M 22 213 L 77 213 L 77 292 L 22 292 Z M 22 213 " clip-rule="nonzero"/></clipPath><clipPath id="dc682e133c"><path d="M 65.664062 213.246094 L 33.894531 213.246094 C 27.722656 213.246094 22.75 218.214844 22.75 224.359375 L 22.75 280.519531 C 22.75 286.660156 27.722656 291.664062 33.894531 291.664062 L 65.664062 291.664062 C 71.808594 291.664062 76.808594 286.691406 76.808594 280.519531 L 76.808594 224.359375 C 76.808594 218.214844 71.808594 213.214844 65.664062 213.214844 " clip-rule="nonzero"/></clipPath><clipPath id="cf2d8f29d6"><path d="M 24.207031 213 L 77 213 L 77 292 L 24.207031 292 Z M 24.207031 213 " clip-rule="nonzero"/></clipPath><clipPath id="338469aecf"><path d="M 33.773438 291.664062 C 29.820312 291.664062 26.394531 289.5625 24.449219 286.445312 C 33.464844 262.859375 39.792969 238.253906 43.28125 213.246094 L 65.789062 213.246094 C 71.871094 213.246094 76.808594 218.183594 76.808594 224.265625 L 76.808594 280.640625 C 76.808594 286.722656 71.871094 291.664062 65.789062 291.664062 Z M 33.773438 291.664062 " clip-rule="nonzero"/></clipPath><clipPath id="f5a5c4b907"><path d="M 183.277344 53.492188 L 191.722656 53.492188 L 191.722656 160.476562 L 183.277344 160.476562 Z M 183.277344 53.492188 " clip-rule="nonzero"/></clipPath><clipPath id="a26eabc24e"><path d="M 187.492188 160.386719 C 185.484375 160.386719 183.847656 158.753906 183.847656 156.746094 L 183.847656 57.488281 C 183.847656 55.480469 185.484375 53.84375 187.492188 53.84375 C 189.5 53.84375 191.136719 55.480469 191.136719 57.488281 L 191.136719 156.746094 C 191.136719 158.753906 189.5 160.386719 187.492188 160.386719 " clip-rule="nonzero"/></clipPath><clipPath id="de07be6b33"><path d="M 94 75 L 191.722656 75 L 191.722656 130 L 94 130 Z M 94 75 " clip-rule="nonzero"/></clipPath><clipPath id="c5a0097ced"><path d="M 187.492188 129.636719 C 187.308594 129.636719 187.121094 129.609375 186.90625 129.578125 L 97.1875 115.28125 C 95.425781 115.003906 94.097656 113.460938 94.097656 111.671875 L 94.097656 79.53125 C 94.097656 77.523438 95.734375 75.886719 97.742188 75.886719 C 99.75 75.886719 101.386719 77.523438 101.386719 79.53125 L 101.386719 108.550781 L 188.015625 122.351562 C 190.023438 122.660156 191.351562 124.542969 191.042969 126.519531 C 190.765625 128.3125 189.191406 129.609375 187.429688 129.609375 " clip-rule="nonzero"/></clipPath><clipPath id="81fc2191d5"><path d="M 183.277344 97.132812 L 276 97.132812 L 276 144.992188 L 183.277344 144.992188 Z M 183.277344 97.132812 " clip-rule="nonzero"/></clipPath><clipPath id="034522231a"><path d="M 187.492188 144.644531 C 185.703125 144.644531 184.128906 143.316406 183.878906 141.492188 C 183.601562 139.488281 184.992188 137.632812 187 137.355469 L 268.257812 125.996094 L 268.257812 101.605469 C 268.257812 99.597656 269.894531 97.960938 271.902344 97.960938 C 273.90625 97.960938 275.542969 99.597656 275.542969 101.605469 L 275.542969 129.207031 C 275.542969 131.027344 274.214844 132.570312 272.394531 132.820312 L 188.015625 144.613281 C 187.832031 144.644531 187.675781 144.644531 187.492188 144.644531 " clip-rule="nonzero"/></clipPath><clipPath id="2dea3f9c41"><path d="M 49.542969 156 L 325.457031 156 L 325.457031 360 L 49.542969 360 Z M 49.542969 156 " clip-rule="nonzero"/></clipPath><clipPath id="403806167a"><path d="M 284.035156 156.066406 L 90.949219 156.066406 C 68.195312 156.066406 49.765625 169.679688 49.765625 186.476562 L 49.765625 329.113281 C 49.765625 345.910156 68.195312 359.523438 90.949219 359.523438 L 284.035156 359.523438 C 306.789062 359.523438 325.21875 345.910156 325.21875 329.113281 L 325.21875 186.507812 C 325.21875 169.710938 306.789062 156.097656 284.035156 156.097656 " clip-rule="nonzero"/></clipPath><clipPath id="23c4cebafc"><path d="M 63 167.515625 L 312 167.515625 L 312 348 L 63 348 Z M 63 167.515625 " clip-rule="nonzero"/></clipPath><clipPath id="f63b3631bd"><path d="M 274.433594 167.921875 L 100.550781 167.921875 C 80.082031 167.921875 63.472656 179.960938 63.472656 194.8125 L 63.472656 320.839844 C 63.472656 335.6875 80.082031 347.730469 100.550781 347.730469 L 274.433594 347.730469 C 294.902344 347.730469 311.511719 335.6875 311.511719 320.839844 L 311.511719 194.8125 C 311.511719 179.960938 294.902344 167.921875 274.433594 167.921875 " clip-rule="nonzero"/></clipPath><clipPath id="eb60c4548a"><path d="M 74 180.1875 L 83 180.1875 L 83 189 L 74 189 Z M 74 180.1875 " clip-rule="nonzero"/></clipPath><clipPath id="0baa2d3a09"><path d="M 82.921875 184.808594 C 82.921875 187.09375 81.070312 188.945312 78.785156 188.945312 C 76.5 188.945312 74.648438 187.09375 74.648438 184.808594 C 74.648438 182.523438 76.5 180.671875 78.785156 180.671875 C 81.070312 180.671875 82.921875 182.523438 82.921875 184.808594 " clip-rule="nonzero"/></clipPath><clipPath id="22e7ca0fe7"><path d="M 294 180.1875 L 302.933594 180.1875 L 302.933594 189 L 294 189 Z M 294 180.1875 " clip-rule="nonzero"/></clipPath><clipPath id="f5303adbe2"><path d="M 302.3125 184.808594 C 302.3125 187.09375 300.460938 188.945312 298.175781 188.945312 C 295.890625 188.945312 294.039062 187.09375 294.039062 184.808594 C 294.039062 182.523438 295.890625 180.671875 298.175781 180.671875 C 300.460938 180.671875 302.3125 182.523438 302.3125 184.808594 " clip-rule="nonzero"/></clipPath><clipPath id="a97962540a"><path d="M 74 327 L 83 327 L 83 336.441406 L 74 336.441406 Z M 74 327 " clip-rule="nonzero"/></clipPath><clipPath id="a69d67aa5c"><path d="M 82.921875 331.984375 C 82.921875 334.269531 81.070312 336.121094 78.785156 336.121094 C 76.5 336.121094 74.648438 334.269531 74.648438 331.984375 C 74.648438 329.699219 76.5 327.847656 78.785156 327.847656 C 81.070312 327.847656 82.921875 329.699219 82.921875 331.984375 " clip-rule="nonzero"/></clipPath><clipPath id="3b76a5a189"><path d="M 294 327 L 302.933594 327 L 302.933594 336.441406 L 294 336.441406 Z M 294 327 " clip-rule="nonzero"/></clipPath><clipPath id="7f160e0184"><path d="M 302.3125 331.984375 C 302.3125 334.269531 300.460938 336.121094 298.175781 336.121094 C 295.890625 336.121094 294.039062 334.269531 294.039062 331.984375 C 294.039062 329.699219 295.890625 327.847656 298.175781 327.847656 C 300.460938 327.847656 302.3125 329.699219 302.3125 331.984375 " clip-rule="nonzero"/></clipPath><clipPath id="6019d06537"><path d="M 94 218.195312 L 150 218.195312 L 150 274.503906 L 94 274.503906 Z M 94 218.195312 " clip-rule="nonzero"/></clipPath><clipPath id="cf5da68bc4"><path d="M 149.734375 246.496094 C 149.734375 261.808594 137.324219 274.25 121.976562 274.25 C 106.632812 274.25 94.222656 261.839844 94.222656 246.496094 C 94.222656 231.152344 106.632812 218.738281 121.976562 218.738281 C 137.324219 218.738281 149.734375 231.152344 149.734375 246.496094 " clip-rule="nonzero"/></clipPath><clipPath id="570c0dcf62"><path d="M 225 218.195312 L 281 218.195312 L 281 274.503906 L 225 274.503906 Z M 225 218.195312 " clip-rule="nonzero"/></clipPath><clipPath id="fb372e21ee"><path d="M 280.761719 246.496094 C 280.761719 261.808594 268.351562 274.25 253.007812 274.25 C 237.660156 274.25 225.25 261.839844 225.25 246.496094 C 225.25 231.152344 237.660156 218.738281 253.007812 218.738281 C 268.351562 218.738281 280.761719 231.152344 280.761719 246.496094 " clip-rule="nonzero"/></clipPath><clipPath id="5ebcf1094f"><path d="M 225 213 L 281 213 L 281 269 L 225 269 Z M 225 213 " clip-rule="nonzero"/></clipPath><clipPath id="87302de844"><path d="M 280.761719 241.125 C 280.761719 256.4375 268.351562 268.878906 253.007812 268.878906 C 237.660156 268.878906 225.25 256.46875 225.25 241.125 C 225.25 225.777344 237.660156 213.367188 253.007812 213.367188 C 268.351562 213.367188 280.761719 225.777344 280.761719 241.125 " clip-rule="nonzero"/></clipPath><clipPath id="ccf8da511c"><path d="M 150 15 L 225 15 L 225 90 L 150 90 Z M 150 15 " clip-rule="nonzero"/></clipPath><clipPath id="05a24aef39"><path d="M 224.570312 52.515625 C 224.570312 72.984375 207.960938 89.59375 187.492188 89.59375 C 167.023438 89.59375 150.414062 72.984375 150.414062 52.515625 C 150.414062 32.046875 167.023438 15.4375 187.492188 15.4375 C 207.960938 15.4375 224.570312 32.046875 224.570312 52.515625 " clip-rule="nonzero"/></clipPath><clipPath id="4d963e8b59"><path d="M 150 45.046875 L 225 45.046875 L 225 90 L 150 90 Z M 150 45.046875 " clip-rule="nonzero"/></clipPath><clipPath id="b676d1bbcd"><path d="M 187.492188 75.640625 C 169.398438 75.640625 154.363281 62.671875 151.09375 45.539062 C 150.660156 47.792969 150.414062 50.109375 150.414062 52.515625 C 150.414062 72.984375 167.023438 89.59375 187.492188 89.59375 C 207.960938 89.59375 224.570312 72.984375 224.570312 52.515625 C 224.570312 50.140625 224.324219 47.792969 223.890625 45.539062 C 220.621094 62.671875 205.585938 75.640625 187.492188 75.640625 " clip-rule="nonzero"/></clipPath><clipPath id="a34dbc1f3a"><path d="M 75 57 L 119.929688 57 L 119.929688 102 L 75 102 Z M 75 57 " clip-rule="nonzero"/></clipPath><clipPath id="269589cae3"><path d="M 119.847656 79.53125 C 119.847656 91.726562 109.96875 101.574219 97.804688 101.574219 C 85.640625 101.574219 75.730469 91.695312 75.730469 79.53125 C 75.730469 67.367188 85.609375 57.488281 97.804688 57.488281 C 110 57.488281 119.847656 67.367188 119.847656 79.53125 " clip-rule="nonzero"/></clipPath><clipPath id="1292094657"><path d="M 75 75 L 119.929688 75 L 119.929688 102 L 75 102 Z M 75 75 " clip-rule="nonzero"/></clipPath><clipPath id="de6f733723"><path d="M 97.773438 93.300781 C 87 93.300781 78.046875 85.582031 76.132812 75.394531 C 75.882812 76.75 75.730469 78.109375 75.730469 79.53125 C 75.730469 91.726562 85.609375 101.574219 97.773438 101.574219 C 109.9375 101.574219 119.816406 91.695312 119.816406 79.53125 C 119.816406 78.109375 119.664062 76.722656 119.414062 75.394531 C 117.472656 85.582031 108.515625 93.300781 97.773438 93.300781 " clip-rule="nonzero"/></clipPath><clipPath id="2df0328965"><path d="M 249.4375 73.199219 L 294 73.199219 L 294 118 L 249.4375 118 Z M 249.4375 73.199219 " clip-rule="nonzero"/></clipPath><clipPath id="7bc7f30fec"><path d="M 293.976562 95.617188 C 293.976562 107.8125 284.097656 117.660156 271.933594 117.660156 C 259.765625 117.660156 249.855469 107.78125 249.855469 95.617188 C 249.855469 83.453125 259.738281 73.570312 271.933594 73.570312 C 284.125 73.570312 293.976562 83.453125 293.976562 95.617188 " clip-rule="nonzero"/></clipPath><clipPath id="3941d188da"><path d="M 249.4375 91 L 294 91 L 294 118 L 249.4375 118 Z M 249.4375 91 " clip-rule="nonzero"/></clipPath><clipPath id="8315c4a946"><path d="M 271.902344 109.386719 C 261.125 109.386719 252.171875 101.667969 250.257812 91.480469 C 250.011719 92.835938 249.855469 94.195312 249.855469 95.617188 C 249.855469 107.8125 259.738281 117.660156 271.902344 117.660156 C 284.066406 117.660156 293.945312 107.78125 293.945312 95.617188 C 293.945312 94.195312 293.789062 92.804688 293.542969 91.480469 C 291.597656 101.667969 282.644531 109.386719 271.902344 109.386719 " clip-rule="nonzero"/></clipPath><clipPath id="f4c363ef00"><path d="M 234 220 L 250.847656 220 L 250.847656 237 L 234 237 Z M 234 220 " clip-rule="nonzero"/></clipPath><clipPath id="bb7ee25e7a"><path d="M 250.105469 228.773438 C 250.105469 233.128906 246.554688 236.675781 242.199219 236.675781 C 237.847656 236.675781 234.296875 233.128906 234.296875 228.773438 C 234.296875 224.421875 237.847656 220.871094 242.199219 220.871094 C 246.554688 220.871094 250.105469 224.421875 250.105469 228.773438 " clip-rule="nonzero"/></clipPath><clipPath id="8c5d63e46a"><path d="M 164 309 L 208 309 L 208 329.402344 L 164 329.402344 Z M 164 309 " clip-rule="nonzero"/></clipPath><clipPath id="4bd5171399"><path d="M 195.613281 312.007812 C 195.335938 312.441406 194.964844 312.78125 194.65625 313.183594 C 192.925781 314.601562 191.074219 315.621094 189.160156 316.300781 C 184.15625 317.722656 178.785156 315.898438 174.496094 312.132812 C 168.9375 307.253906 161.402344 314.726562 166.375 320.253906 C 177.828125 332.972656 196.105469 331.550781 206.171875 318.152344 C 210.832031 311.949219 199.933594 305.246094 195.613281 311.976562 " clip-rule="nonzero"/></clipPath><clipPath id="366fef81fc"><path d="M 164 306 L 208 306 L 208 326.585938 L 164 326.585938 Z M 164 306 " clip-rule="nonzero"/></clipPath><clipPath id="e7397778a8"><path d="M 195.613281 309.046875 C 195.335938 309.476562 194.964844 309.816406 194.65625 310.21875 C 192.925781 311.640625 191.074219 312.65625 189.160156 313.335938 C 184.15625 314.757812 178.785156 312.933594 174.496094 309.167969 C 168.9375 304.289062 161.402344 311.761719 166.375 317.289062 C 177.828125 330.007812 196.105469 328.589844 206.171875 315.1875 C 210.832031 308.984375 199.933594 302.285156 195.613281 309.015625 " clip-rule="nonzero"/></clipPath><clipPath id="16e6bedb1c"><path d="M 169.199219 247 L 202.984375 247 L 202.984375 296 L 169.199219 296 Z M 169.199219 247 " clip-rule="nonzero"/></clipPath><clipPath id="c48e5e7c92"><path d="M 194.871094 295.675781 L 177.210938 295.675781 C 172.703125 295.675781 169.246094 291.757812 169.769531 287.28125 L 173.785156 253.75 C 174.246094 249.984375 177.425781 247.144531 181.226562 247.144531 L 190.828125 247.144531 C 194.625 247.144531 197.804688 249.984375 198.265625 253.75 L 202.28125 287.28125 C 202.804688 291.757812 199.316406 295.675781 194.839844 295.675781 " clip-rule="nonzero"/></clipPath><clipPath id="b0d0f2900a"><path d="M 169.199219 244 L 202.984375 244 L 202.984375 294 L 169.199219 294 Z M 169.199219 244 " clip-rule="nonzero"/></clipPath><clipPath id="6066bcb572"><path d="M 194.871094 293.113281 L 177.210938 293.113281 C 172.703125 293.113281 169.246094 289.195312 169.769531 284.71875 L 173.785156 251.1875 C 174.246094 247.421875 177.425781 244.582031 181.226562 244.582031 L 190.828125 244.582031 C 194.625 244.582031 197.804688 247.421875 198.265625 251.1875 L 202.28125 284.71875 C 202.804688 289.195312 199.316406 293.113281 194.839844 293.113281 " clip-rule="nonzero"/></clipPath><clipPath id="bccf71d616"><path d="M 169.199219 282 L 202.984375 282 L 202.984375 294 L 169.199219 294 Z M 169.199219 282 " clip-rule="nonzero"/></clipPath><clipPath id="1bb1b0d22e"><path d="M 202.003906 282.246094 C 201.046875 285.242188 198.234375 287.496094 194.871094 287.496094 L 177.210938 287.496094 C 173.816406 287.496094 171.035156 285.273438 170.078125 282.246094 L 169.769531 284.71875 C 169.246094 289.195312 172.734375 293.113281 177.210938 293.113281 L 194.839844 293.113281 C 199.347656 293.113281 202.804688 289.195312 202.28125 284.71875 Z M 202.003906 282.246094 " clip-rule="nonzero"/></clipPath><clipPath id="d49e0da022"><path d="M 94 213 L 150 213 L 150 269 L 94 269 Z M 94 213 " clip-rule="nonzero"/></clipPath><clipPath id="e670c189dd"><path d="M 149.734375 241.125 C 149.734375 256.4375 137.324219 268.878906 121.976562 268.878906 C 106.632812 268.878906 94.222656 256.46875 94.222656 241.125 C 94.222656 225.777344 106.632812 213.367188 121.976562 213.367188 C 137.324219 213.367188 149.734375 225.777344 149.734375 241.125 " clip-rule="nonzero"/></clipPath><clipPath id="0b2d35ee67"><path d="M 103.039062 220 L 119.929688 220 L 119.929688 237 L 103.039062 237 Z M 103.039062 220 " clip-rule="nonzero"/></clipPath><clipPath id="e1931d5152"><path d="M 119.105469 228.773438 C 119.105469 233.128906 115.558594 236.675781 111.203125 236.675781 C 106.851562 236.675781 103.300781 233.128906 103.300781 228.773438 C 103.300781 224.421875 106.851562 220.871094 111.203125 220.871094 C 115.558594 220.871094 119.105469 224.421875 119.105469 228.773438 " clip-rule="nonzero"/></clipPath></defs><g clip-path="url(#e827fd7fb8)"><g clip-path="url(#ffaac47a2d)"><path fill="#d2de4e" d="M 7.3125 0 L 367.6875 0 L 367.6875 374.449219 L 7.3125 374.449219 Z M 7.3125 0 " fill-opacity="1" fill-rule="nonzero"/></g></g><g clip-path="url(#7c70d500cc)"><g clip-path="url(#2201c71c1b)"><path fill="#a4ce4a" d="M 7.3125 0 L 367.6875 0 L 367.6875 374.449219 L 7.3125 374.449219 Z M 7.3125 0 " fill-opacity="1" fill-rule="nonzero"/></g></g><g clip-path="url(#9d707710a6)"><g clip-path="url(#dc682e133c)"><path fill="#d2de4e" d="M 7.3125 0 L 367.6875 0 L 367.6875 374.449219 L 7.3125 374.449219 Z M 7.3125 0 " fill-opacity="1" fill-rule="nonzero"/></g></g><g clip-path="url(#cf2d8f29d6)"><g clip-path="url(#338469aecf)"><path fill="#a4ce4a" d="M 7.3125 0 L 367.6875 0 L 367.6875 374.449219 L 7.3125 374.449219 Z M 7.3125 0 " fill-opacity="1" fill-rule="nonzero"/></g></g><g clip-path="url(#f5a5c4b907)"><g clip-path="url(#a26eabc24e)"><path fill="#ffffff" d="M 7.3125 0 L 367.6875 0 L 367.6875 374.449219 L 7.3125 374.449219 Z M 7.3125 0 " fill-opacity="1" fill-rule="nonzero"/></g></g><g clip-path="url(#de07be6b33)"><g clip-path="url(#c5a0097ced)"><path fill="#ffffff" d="M 7.3125 0 L 367.6875 0 L 367.6875 374.449219 L 7.3125 374.449219 Z M 7.3125 0 " fill-opacity="1" fill-rule="nonzero"/></g></g><g clip-path="url(#81fc2191d5)"><g clip-path="url(#034522231a)"><path fill="#ffffff" d="M 7.3125 0 L 367.6875 0 L 367.6875 374.449219 L 7.3125 374.449219 Z M 7.3125 0 " fill-opacity="1" fill-rule="nonzero"/></g></g><g clip-path="url(#2dea3f9c41)"><g clip-path="url(#403806167a)"><path fill="#109f9f" d="M 7.3125 0 L 367.6875 0 L 367.6875 374.449219 L 7.3125 374.449219 Z M 7.3125 0 " fill-opacity="1" fill-rule="nonzero"/></g></g><g clip-path="url(#23c4cebafc)"><g clip-path="url(#f63b3631bd)"><path fill="#3bc0cb" d="M 7.3125 0 L 367.6875 0 L 367.6875 374.449219 L 7.3125 374.449219 Z M 7.3125 0 " fill-opacity="1" fill-rule="nonzero"/></g></g><g clip-path="url(#eb60c4548a)"><g clip-path="url(#0baa2d3a09)"><path fill="#ffffff" d="M 7.3125 0 L 367.6875 0 L 367.6875 374.449219 L 7.3125 374.449219 Z M 7.3125 0 " fill-opacity="1" fill-rule="nonzero"/></g></g><g clip-path="url(#22e7ca0fe7)"><g clip-path="url(#f5303adbe2)"><path fill="#ffffff" d="M 7.3125 0 L 367.6875 0 L 367.6875 374.449219 L 7.3125 374.449219 Z M 7.3125 0 " fill-opacity="1" fill-rule="nonzero"/></g></g><g clip-path="url(#a97962540a)"><g clip-path="url(#a69d67aa5c)"><path fill="#ffffff" d="M 7.3125 0 L 367.6875 0 L 367.6875 374.449219 L 7.3125 374.449219 Z M 7.3125 0 " fill-opacity="1" fill-rule="nonzero"/></g></g><g clip-path="url(#3b76a5a189)"><g clip-path="url(#7f160e0184)"><path fill="#ffffff" d="M 7.3125 0 L 367.6875 0 L 367.6875 374.449219 L 7.3125 374.449219 Z M 7.3125 0 " fill-opacity="1" fill-rule="nonzero"/></g></g><g clip-path="url(#6019d06537)"><g clip-path="url(#cf5da68bc4)"><path fill="#109f9f" d="M 7.3125 0 L 367.6875 0 L 367.6875 374.449219 L 7.3125 374.449219 Z M 7.3125 0 " fill-opacity="1" fill-rule="nonzero"/></g></g><g clip-path="url(#570c0dcf62)"><g clip-path="url(#fb372e21ee)"><path fill="#109f9f" d="M 7.3125 0 L 367.6875 0 L 367.6875 374.449219 L 7.3125 374.449219 Z M 7.3125 0 " fill-opacity="1" fill-rule="nonzero"/></g></g><g clip-path="url(#5ebcf1094f)"><g clip-path="url(#87302de844)"><path fill="#2d283f" d="M 7.3125 0 L 367.6875 0 L 367.6875 374.449219 L 7.3125 374.449219 Z M 7.3125 0 " fill-opacity="1" fill-rule="nonzero"/></g></g><g clip-path="url(#ccf8da511c)"><g clip-path="url(#05a24aef39)"><path fill="#d2de4e" d="M 7.3125 0 L 367.6875 0 L 367.6875 374.449219 L 7.3125 374.449219 Z M 7.3125 0 " fill-opacity="1" fill-rule="nonzero"/></g></g><g clip-path="url(#4d963e8b59)"><g clip-path="url(#b676d1bbcd)"><path fill="#a4ce4a" d="M 7.3125 0 L 367.6875 0 L 367.6875 374.449219 L 7.3125 374.449219 Z M 7.3125 0 " fill-opacity="1" fill-rule="nonzero"/></g></g><g clip-path="url(#a34dbc1f3a)"><g clip-path="url(#269589cae3)"><path fill="#f4821f" d="M 7.3125 0 L 367.6875 0 L 367.6875 374.449219 L 7.3125 374.449219 Z M 7.3125 0 " fill-opacity="1" fill-rule="nonzero"/></g></g><g clip-path="url(#1292094657)"><g clip-path="url(#de6f733723)"><path fill="#f16722" d="M 7.3125 0 L 367.6875 0 L 367.6875 374.449219 L 7.3125 374.449219 Z M 7.3125 0 " fill-opacity="1" fill-rule="nonzero"/></g></g><g clip-path="url(#2df0328965)"><g clip-path="url(#7bc7f30fec)"><path fill="#f4821f" d="M 7.3125 0 L 367.6875 0 L 367.6875 374.449219 L 7.3125 374.449219 Z M 7.3125 0 " fill-opacity="1" fill-rule="nonzero"/></g></g><g clip-path="url(#3941d188da)"><g clip-path="url(#8315c4a946)"><path fill="#f16722" d="M 7.3125 0 L 367.6875 0 L 367.6875 374.449219 L 7.3125 374.449219 Z M 7.3125 0 " fill-opacity="1" fill-rule="nonzero"/></g></g><g clip-path="url(#f4c363ef00)"><g clip-path="url(#bb7ee25e7a)"><path fill="#ffffff" d="M 7.3125 0 L 367.6875 0 L 367.6875 374.449219 L 7.3125 374.449219 Z M 7.3125 0 " fill-opacity="1" fill-rule="nonzero"/></g></g><g clip-path="url(#8c5d63e46a)"><g clip-path="url(#4bd5171399)"><path fill="#109f9f" d="M 7.3125 0 L 367.6875 0 L 367.6875 374.449219 L 7.3125 374.449219 Z M 7.3125 0 " fill-opacity="1" fill-rule="nonzero"/></g></g><g clip-path="url(#366fef81fc)"><g clip-path="url(#e7397778a8)"><path fill="#2d283f" d="M 7.3125 0 L 367.6875 0 L 367.6875 374.449219 L 7.3125 374.449219 Z M 7.3125 0 " fill-opacity="1" fill-rule="nonzero"/></g></g><g clip-path="url(#16e6bedb1c)"><g clip-path="url(#c48e5e7c92)"><path fill="#109f9f" d="M 7.3125 0 L 367.6875 0 L 367.6875 374.449219 L 7.3125 374.449219 Z M 7.3125 0 " fill-opacity="1" fill-rule="nonzero"/></g></g><g clip-path="url(#b0d0f2900a)"><g clip-path="url(#6066bcb572)"><path fill="#f4821f" d="M 7.3125 0 L 367.6875 0 L 367.6875 374.449219 L 7.3125 374.449219 Z M 7.3125 0 " fill-opacity="1" fill-rule="nonzero"/></g></g><g clip-path="url(#bccf71d616)"><g clip-path="url(#1bb1b0d22e)"><path fill="#f16722" d="M 7.3125 0 L 367.6875 0 L 367.6875 374.449219 L 7.3125 374.449219 Z M 7.3125 0 " fill-opacity="1" fill-rule="nonzero"/></g></g><g clip-path="url(#d49e0da022)"><g clip-path="url(#e670c189dd)"><path fill="#2d283f" d="M 7.3125 0 L 367.6875 0 L 367.6875 374.449219 L 7.3125 374.449219 Z M 7.3125 0 " fill-opacity="1" fill-rule="nonzero"/></g></g><g clip-path="url(#0b2d35ee67)"><g clip-path="url(#e1931d5152)"><path fill="#ffffff" d="M 7.3125 0 L 367.6875 0 L 367.6875 374.449219 L 7.3125 374.449219 Z M 7.3125 0 " fill-opacity="1" fill-rule="nonzero"/></g></g></svg>